<svg xmlns="http://www.w3.org/2000/svg" viewBox="0 0 512 512" width="512" height="512">
  <rect width="512" height="512" rx="96" fill="#1a3a2a"/>
  <g fill="#7fb085">
    <path d="M256 96 C 192 96, 144 144, 144 208 C 144 272, 192 320, 256 320 C 320 320, 368 272, 368 208 C 368 144, 320 96, 256 96 Z M 256 144 C 296 144, 320 176, 320 208 C 320 240, 296 272, 256 272 C 216 272, 192 240, 192 208 C 192 176, 216 144, 256 144 Z"/>
    <rect x="240" y="288" width="32" height="128" rx="8"/>
  </g>
  <g fill="#a8d4b3" opacity="0.9">
    <circle cx="160" cy="380" r="14"/>
    <circle cx="352" cy="380" r="14"/>
    <circle cx="256" cy="424" r="18"/>
  </g>
</svg>
